<svg version="1" xmlns="http://www.w3.org/2000/svg" width="360" height="360" viewBox="0 0 270.000000 270.000000"><path d="M90.6 1.6C89.3 2.8 89 5.4 89 13.4v10.3l-5.7 1.4c-3.2.7-6.2 1.3-6.6 1.4-.4 0-2.7-3.6-5-7.9-4.7-8.8-6.7-10.7-9.4-9-3.1 1.9-2.6 5.1 2 13.3l4.5 7.9-4.7 4.6c-2.6 2.5-5 4.6-5.4 4.6-.3 0-4.2-2.3-8.5-5-4.3-2.8-8.5-5-9.3-5-2.2 0-3.9 2.1-3.9 4.6 0 2.5 2.8 4.9 12.1 10.3l5.6 3.4-1.3 4.5C49.6 65.3 52.4 75.4 66 99c2.1 3.6 5.1 9.2 6.8 12.5l3 6.1-8 4.3c-4.3 2.4-8 4.1-8.2 4-.1-.2-2.6-4.1-5.5-8.7-6.6-10.2-10-13.2-14.9-13.2-5.3 0-11.9 3.6-14.8 8.1-2.3 3.7-3.2 8.4-1.6 9.1.4.2 2 2.8 3.6 5.8 4.6 8.8 16.6 27.3 19.3 29.7 1.8 1.7 3.6 2.3 7.3 2.3 5.8 0 7.7-.8 19.3-7.7 4.8-2.9 10.5-6.2 12.6-7.3l4-2 3.4 5.8c1.9 3.1 4.9 8.5 6.6 11.9 1.7 3.4 5.1 9.6 7.5 13.7l4.4 7.4-5.5 17.4c-4.4 13.9-5.5 18.8-5.6 24.8l-.2 7.5 7.7 12c4.2 6.6 9.6 15 11.9 18.7 4.4 6.9 7 8.8 12 8.8 9.5 0 18.9-9.3 18.9-18.8 0-3.7-4.1-11.7-12.4-23.9-1.4-2.1-2.6-4.9-2.6-6.3 0-1.4 1.6-7.7 3.6-14.1l3.7-11.7 5.6-1.1c3.1-.6 8-2.5 11-4.1 3-1.7 5.5-3 5.6-3 .2 0 2.6 4 5.5 8.9s7.2 10.9 9.7 13.2c4.4 4.4 4.4 4.4 11.6 4.4l7.2-.1 15.8-9.2c31.7-18.5 32.7-19.4 32.7-27.4 0-5.1-1.8-9.7-5.3-13.5-2.5-2.8-11-5.7-14.3-4.9-1.4.4-8.6 4.1-16.1 8.3-10 5.6-14 7.3-15.1 6.6-1.9-1.1-17.2-26.2-17.2-28 0-1.8-7.7-17-15.6-31-3.5-6.2-6.4-11.6-6.4-12.2 0-.9 13.4-9.1 14.9-9.1.4 0 3.3 4.1 6.5 9 3.2 5 6.7 9.7 7.9 10.5 1.3.9 4.4 1.5 7.6 1.5 9.2 0 15.1-5.2 15.1-13.3 0-3.6-1.3-6.4-8.7-18.7-4.9-7.9-10.7-16.4-13-18.8-4-4.3-4.4-4.4-9-4-4.3.4-13.6 5.1-34.5 17.4-.3.2-1.3-.8-2.1-2.3-19.2-37-24.6-43.9-37.7-47.9l-6-1.9V13.3C98 3.2 97.8 2 96.1 1c-2.7-1.4-3.7-1.3-5.5.6zM252 158c0 .5.5 1 1 1 .6 0 1-.5 1-1 0-.6-.4-1-1-1-.5 0-1 .4-1 1z"/></svg>