<?xml version="1.0" standalone="no"?>
<!DOCTYPE svg PUBLIC "-//W3C//DTD SVG 20010904//EN"
 "http://www.w3.org/TR/2001/REC-SVG-20010904/DTD/svg10.dtd">
<svg version="1.0" xmlns="http://www.w3.org/2000/svg"
 width="270.000000pt" height="270.000000pt" viewBox="0 0 270.000000 270.000000"
 preserveAspectRatio="xMidYMid meet">
<metadata>
Created by potrace 1.11, written by Peter Selinger 2001-2013
</metadata>
<g transform="translate(0.000000,270.000000) scale(0.100000,-0.100000)"
fill="#000000" stroke="none">
<path d="M920 2680 c-11 -7 -15 -35 -15 -114 -1 -58 -4 -108 -6 -110 -2 -3
-16 -7 -29 -10 -26 -5 -51 -11 -85 -21 -11 -3 -24 -2 -30 2 -9 7 -54 86 -80
140 -13 27 -40 36 -56 17 -10 -12 -5 -29 22 -84 18 -39 37 -70 40 -70 4 0 9
-9 12 -21 4 -15 -8 -34 -47 -74 l-53 -54 -57 34 c-31 19 -56 32 -56 30 0 -2
-11 7 -25 20 -14 12 -34 22 -43 20 -9 -2 -19 -4 -22 -4 -14 -2 -7 -41 11 -57
10 -9 19 -14 19 -11 0 3 12 -5 26 -18 15 -14 31 -25 36 -25 9 0 23 -10 58 -42
18 -16 18 -21 5 -57 -16 -47 -14 -183 3 -204 7 -7 9 -16 7 -19 -7 -7 44 -110
59 -120 6 -4 7 -8 2 -8 -5 0 -4 -6 1 -12 13 -16 53 -89 110 -197 35 -69 41
-87 31 -97 -19 -18 -145 -84 -160 -84 -7 0 -28 27 -46 60 -19 33 -38 60 -43
60 -5 0 -9 6 -9 13 0 19 -56 77 -77 78 -70 6 -133 -17 -159 -55 -19 -30 -27
-74 -18 -95 4 -9 8 -18 9 -21 2 -3 6 -15 10 -27 4 -13 11 -23 16 -23 5 0 9 -4
9 -10 0 -8 52 -93 144 -233 17 -26 40 -50 51 -52 45 -10 74 -13 79 -7 4 3 12
7 19 8 7 1 69 35 139 75 190 110 169 102 188 71 9 -15 41 -72 70 -127 29 -55
62 -116 73 -135 11 -19 25 -44 31 -55 6 -11 16 -27 21 -35 11 -17 15 -70 6
-70 -8 0 -35 -90 -32 -104 1 -4 -4 -14 -10 -22 -6 -8 -8 -14 -5 -14 4 0 2 -8
-3 -18 -6 -11 -12 -30 -15 -43 -3 -13 -13 -49 -22 -79 -8 -30 -16 -80 -17
-111 -1 -48 4 -64 33 -110 19 -30 37 -56 40 -59 3 -3 11 -15 18 -27 6 -13 18
-33 25 -45 6 -13 14 -25 17 -28 3 -3 27 -40 53 -82 37 -59 55 -79 80 -87 55
-18 119 3 169 56 56 59 59 134 9 208 -17 25 -31 50 -31 55 0 4 -4 10 -8 12 -4
1 -23 27 -41 57 -25 41 -32 63 -30 95 1 22 5 46 8 51 3 6 7 17 8 25 2 8 15 53
30 100 l28 85 40 4 c42 3 125 33 159 56 11 8 26 15 33 15 11 0 35 -35 49 -73
3 -9 10 -17 15 -17 5 0 9 -5 9 -11 0 -26 75 -121 115 -144 69 -41 103 -35 240
42 66 36 134 74 150 84 17 11 40 23 53 29 12 5 22 14 22 20 0 5 3 9 8 8 11 -4
92 44 92 54 0 5 4 6 10 3 16 -10 50 57 50 97 0 86 -56 151 -143 167 -44 8 -35
12 -197 -77 -30 -16 -75 -41 -98 -55 -40 -22 -82 -26 -82 -7 0 4 -27 50 -60
101 -67 105 -103 169 -95 169 3 0 -2 11 -11 25 -9 14 -14 25 -10 25 8 0 -107
216 -125 235 -5 5 -9 17 -9 26 0 10 -4 19 -9 21 -9 3 -74 128 -69 133 2 1 26
15 53 30 28 14 64 35 80 45 17 10 33 19 37 19 3 1 32 -39 63 -89 31 -49 61
-90 66 -90 6 0 8 -4 5 -9 -8 -12 40 -31 79 -31 100 0 164 77 136 163 -6 18
-35 69 -64 115 -28 45 -72 114 -96 153 -65 103 -121 119 -221 62 -25 -14 -65
-37 -90 -51 -25 -14 -73 -42 -107 -63 l-62 -38 -22 37 c-12 20 -35 62 -52 92
-17 30 -35 58 -41 62 -6 4 -7 8 -3 8 4 0 -7 26 -24 58 -17 31 -39 70 -48 87
-19 34 -102 127 -109 121 -2 -3 -13 4 -25 14 -20 19 -113 56 -132 52 -7 -1
-10 40 -9 113 2 99 0 117 -15 125 -10 5 -23 5 -31 0z"/>
</g>
</svg>
